<svg width="993" height="248" viewBox="0 0 993 248" fill="none" xmlns="http://www.w3.org/2000/svg"><script xmlns=""/><path d="M395.755 146H371.77L404.365 59.9H428.965L461.56 146H437.575L432.04 130.625H401.29L395.755 146ZM406.825 114.635H426.505L416.665 85.73L406.825 114.635Z" fill="white"/><path d="M920.755 146H896.77L929.365 59.9H953.965L986.56 146H962.575L957.04 130.625H926.29L920.755 146ZM931.825 114.635H951.505L941.665 85.73L931.825 114.635Z" fill="white"/><path d="M485.38 59.9H534.58C542.616 59.9 548.52 61.745 552.292 65.435C556.064 69.043 557.95 74.578 557.95 82.04C557.95 86.96 556.884 90.978 554.752 94.094C552.62 97.128 549.996 99.26 546.88 100.49C553.522 102.294 558.032 106.722 560.41 113.774C561.23 116.316 561.64 119.268 561.64 122.63C561.64 130.666 559.754 136.57 555.982 140.342C552.21 144.114 546.306 146 538.27 146H485.38V59.9ZM539.5 118.94C539.5 114.02 537.04 111.56 532.12 111.56H507.52V128.78H532.12C537.04 128.78 539.5 126.32 539.5 121.4V118.94ZM535.81 84.5C535.81 79.58 533.35 77.12 528.43 77.12H507.52V94.34H528.43C533.35 94.34 535.81 91.88 535.81 86.96V84.5Z" fill="white"/><path d="M589.38 59.9H641.04C649.65 59.9 655.882 61.868 659.736 65.804C663.672 69.658 665.64 75.89 665.64 84.5V96.8C665.64 105.41 663.672 111.683 659.736 115.619C655.882 119.473 649.65 121.4 641.04 121.4H611.52V146H589.38V59.9ZM643.5 84.5C643.5 79.58 641.04 77.12 636.12 77.12H611.52V104.18H636.12C641.04 104.18 643.5 101.72 643.5 96.8V84.5Z" fill="white"/><path d="M800.38 59.9H852.04C860.65 59.9 866.882 61.868 870.736 65.804C874.672 69.658 876.64 75.89 876.64 84.5V96.8C876.64 105.41 874.672 111.683 870.736 115.619C866.882 119.473 860.65 121.4 852.04 121.4H822.52V146H800.38V59.9ZM854.5 84.5C854.5 79.58 852.04 77.12 847.12 77.12H822.52V104.18H847.12C852.04 104.18 854.5 101.72 854.5 96.8V84.5Z" fill="white"/><path d="M748.73 83.27C748.73 78.35 746.27 75.89 741.35 75.89H720.44C715.52 75.89 713.06 78.35 713.06 83.27V122.63C713.06 127.55 715.52 130.01 720.44 130.01H741.35C746.27 130.01 748.73 127.55 748.73 122.63V83.27ZM770.87 122.63C770.87 131.24 768.902 137.513 764.966 141.449C761.112 145.303 754.88 147.23 746.27 147.23H715.52C706.91 147.23 700.637 145.303 696.701 141.449C692.847 137.513 690.92 131.24 690.92 122.63V83.27C690.92 74.66 692.847 68.428 696.701 64.574C700.637 60.638 706.91 58.67 715.52 58.67H746.27C754.88 58.67 761.112 60.638 764.966 64.574C768.902 68.428 770.87 74.66 770.87 83.27V122.63Z" fill="white"/><path d="M385.175 234.62C383.108 234.62 381.6 234.579 380.649 234.496C379.74 234.413 378.686 234.207 377.487 233.876C376.206 233.545 375.214 233.049 374.511 232.388C373.808 231.727 373.209 230.755 372.713 229.474C372.217 228.234 371.969 226.684 371.969 224.824V213.788C371.969 210.44 372.61 208.043 373.891 206.596C374.594 205.769 375.296 205.149 375.999 204.736C376.743 204.281 377.694 203.971 378.851 203.806C380.008 203.641 381.042 203.537 381.951 203.496C382.86 203.413 384.142 203.372 385.795 203.372C388.647 203.372 391.499 203.682 394.351 204.302V208.394C391.044 207.567 387.965 207.154 385.113 207.154C382.964 207.154 381.372 207.319 380.339 207.65C379.347 207.939 378.644 208.497 378.231 209.324C377.859 210.109 377.673 211.329 377.673 212.982V225.258C377.673 226.787 377.88 227.924 378.293 228.668C378.748 229.412 379.533 229.949 380.649 230.28C381.806 230.569 383.501 230.714 385.733 230.714C388.75 230.714 391.768 230.321 394.785 229.536V233.752C391.974 234.331 388.771 234.62 385.175 234.62ZM443.217 203.992H468.575V234H462.995V208.084H448.797V234H443.217V203.992ZM532.276 234.62C523.1 234.62 518.512 231.561 518.512 225.444V213.602C518.512 209.965 519.545 207.361 521.612 205.79C523.72 204.178 527.109 203.372 531.78 203.372C536.203 203.372 539.385 204.137 541.328 205.666C543.312 207.195 544.304 209.841 544.304 213.602V220.236H524.154V224.762C524.154 226.829 524.877 228.317 526.324 229.226C527.771 230.135 530.003 230.59 533.02 230.59C535.872 230.59 539.241 230.094 543.126 229.102V233.38C539.323 234.207 535.707 234.62 532.276 234.62ZM538.724 216.578V211.866C538.724 210.047 538.166 208.807 537.05 208.146C535.975 207.443 534.115 207.092 531.47 207.092C528.907 207.092 527.047 207.443 525.89 208.146C524.733 208.807 524.154 210.047 524.154 211.866V216.578H538.724ZM619.6 234H594.18V203.992H599.76V229.908H614.578V203.992H620.158V229.908H624.374V241.688H619.6V234ZM684.134 234.62C682.067 234.62 680.559 234.579 679.608 234.496C678.699 234.413 677.645 234.207 676.446 233.876C675.165 233.545 674.173 233.049 673.47 232.388C672.767 231.727 672.168 230.755 671.672 229.474C671.176 228.234 670.928 226.684 670.928 224.824V213.788C670.928 210.44 671.569 208.043 672.85 206.596C673.553 205.769 674.255 205.149 674.958 204.736C675.702 204.281 676.653 203.971 677.81 203.806C678.967 203.641 680.001 203.537 680.91 203.496C681.819 203.413 683.101 203.372 684.754 203.372C687.606 203.372 690.458 203.682 693.31 204.302V208.394C690.003 207.567 686.924 207.154 684.072 207.154C681.923 207.154 680.331 207.319 679.298 207.65C678.306 207.939 677.603 208.497 677.19 209.324C676.818 210.109 676.632 211.329 676.632 212.982V225.258C676.632 226.787 676.839 227.924 677.252 228.668C677.707 229.412 678.492 229.949 679.608 230.28C680.765 230.569 682.46 230.714 684.692 230.714C687.709 230.714 690.727 230.321 693.744 229.536V233.752C690.933 234.331 687.73 234.62 684.134 234.62ZM749.368 208.084H738.828V203.992H765.426V208.084H754.948V234H749.368V208.084ZM822.376 234.62C819.524 234.62 817.312 234.351 815.742 233.814C814.212 233.277 813.096 232.326 812.394 230.962C811.732 229.598 811.402 227.635 811.402 225.072C811.402 222.799 811.712 221.042 812.332 219.802C812.993 218.521 814.088 217.611 815.618 217.074C817.188 216.537 819.4 216.268 822.252 216.268H831.242V211.494C831.242 210.378 831.014 209.531 830.56 208.952C830.146 208.332 829.423 207.898 828.39 207.65C827.398 207.402 825.93 207.278 823.988 207.278C820.888 207.278 817.457 207.526 813.696 208.022V203.93C817.788 203.558 821.487 203.372 824.794 203.372C828.266 203.372 830.828 203.641 832.482 204.178C834.135 204.674 835.272 205.563 835.892 206.844C836.512 208.125 836.822 210.109 836.822 212.796V234H831.428V231.148C830.973 233.463 827.956 234.62 822.376 234.62ZM823.306 230.962C825.331 230.962 827.046 230.817 828.452 230.528C830.312 230.156 831.242 229.288 831.242 227.924V219.74H822.624C820.846 219.74 819.565 219.885 818.78 220.174C817.994 220.422 817.478 220.918 817.23 221.662C816.982 222.406 816.858 223.605 816.858 225.258C816.858 226.746 817.002 227.903 817.292 228.73C817.581 229.515 818.098 230.094 818.842 230.466C819.586 230.797 820.702 230.962 822.19 230.962H823.306ZM886.321 234.062C885.701 234.062 885.102 234 884.523 233.876V229.102C885.102 229.226 885.68 229.288 886.259 229.288C888.036 229.288 889.442 228.007 890.475 225.444C891.55 222.84 892.087 218.045 892.087 211.06V203.992H912.485V234H906.905V207.65H897.047V211.99C897.047 218.81 896.241 224.204 894.629 228.172C893.017 232.099 890.248 234.062 886.321 234.062ZM963.132 203.992H968.712V214.842H976.4C978.963 214.842 980.988 215.028 982.476 215.4C984.005 215.772 985.121 216.433 985.824 217.384C986.527 218.293 986.878 219.595 986.878 221.29V227.49C986.878 231.83 983.22 234 975.904 234H963.132V203.992ZM975.532 230.404C976.731 230.404 977.971 230.239 979.252 229.908C980.699 229.536 981.422 228.482 981.422 226.746V222.964C981.422 221.765 981.257 220.856 980.926 220.236C980.637 219.616 980.079 219.182 979.252 218.934C978.467 218.686 977.268 218.562 975.656 218.562H968.65V230.404H975.532Z" fill="white"/><path d="M273 182L327 234H219L273 182Z" fill="#E94C26"/><path d="M164 77V0L327 157V234L164 77Z" fill="#DADADA"/><path d="M0 157.5V234.5L164 77V0L0 157.5Z" fill="#E94C26"/><rect x="140" y="144" width="20" height="20" fill="#DADADA"/><rect x="168" y="144" width="20" height="20" fill="#E94C26"/><rect x="140" y="172" width="20" height="20" fill="#E94C26"/><rect x="168" y="172" width="20" height="20" fill="white"/><script xmlns=""/></svg>